<svg width="216" height="184" viewBox="0 0 216 184" fill="none" xmlns="http://www.w3.org/2000/svg">
<g filter="url(#filter0_d_12487_41782)">
<rect x="67" y="67" width="80" height="48" rx="10" fill="#E93636" shape-rendering="crispEdges"/>
<path d="M116.712 87.4491C111.448 82.1869 102.553 82.1869 97.289 87.4491C95.414 89.3241 95.234 92.0888 96.8493 94.1719C96.9897 94.3519 97.1694 94.4975 97.3746 94.5976C97.5798 94.6977 97.8051 94.7496 98.0334 94.7494C98.2178 94.7495 98.4006 94.7152 98.5725 94.6481L103.166 93.0197L103.193 93.0094C103.425 92.9167 103.63 92.7675 103.79 92.5755C103.95 92.3835 104.059 92.1546 104.107 91.9097L104.661 89.1422C106.169 88.6209 107.808 88.6172 109.318 89.1319L109.9 91.921C109.951 92.1632 110.06 92.3891 110.219 92.5787C110.378 92.7683 110.582 92.9156 110.812 93.0075L110.839 93.0178L115.432 94.6481C115.733 94.7644 116.062 94.781 116.372 94.6956C116.683 94.6102 116.957 94.4272 117.156 94.1738C118.767 92.0888 118.586 89.3241 116.712 87.4491ZM115.97 93.2494L115.942 93.2381L111.365 91.6135L110.782 88.8253C110.73 88.573 110.613 88.3386 110.443 88.1447C110.273 87.9508 110.056 87.8039 109.813 87.7181C107.979 87.0902 105.988 87.0945 104.156 87.7303C103.911 87.8179 103.693 87.9676 103.524 88.1648C103.354 88.3621 103.239 88.6 103.189 88.8553L102.636 91.6219L98.0596 93.2363C98.0503 93.2363 98.0437 93.2485 98.0343 93.2522C96.8784 91.7606 97.0031 89.8556 98.3493 88.5103C100.693 86.1666 103.848 84.9919 107.001 84.9919C110.153 84.9919 113.307 86.1647 115.652 88.5103C116.995 89.8556 117.126 91.7606 115.97 93.2494ZM116 97.7494C116 97.9483 115.921 98.1391 115.78 98.2797C115.639 98.4204 115.449 98.4994 115.25 98.4994H98.7506C98.5517 98.4994 98.3609 98.4204 98.2203 98.2797C98.0796 98.1391 98.0006 97.9483 98.0006 97.7494C98.0006 97.5505 98.0796 97.3597 98.2203 97.2191C98.3609 97.0784 98.5517 96.9994 98.7506 96.9994H115.251C115.449 96.9994 115.64 97.0784 115.781 97.2191C115.922 97.3597 116.001 97.5505 116.001 97.7494H116Z" fill="white"/>
</g>
<defs>
<filter id="filter0_d_12487_41782" x="0" y="0" width="216" height="184" filterUnits="userSpaceOnUse" color-interpolation-filters="sRGB">
<feFlood flood-opacity="0" result="BackgroundImageFix"/>
<feColorMatrix in="SourceAlpha" type="matrix" values="0 0 0 0 0 0 0 0 0 0 0 0 0 0 0 0 0 0 127 0" result="hardAlpha"/>
<feOffset dx="1" dy="1"/>
<feGaussianBlur stdDeviation="34"/>
<feComposite in2="hardAlpha" operator="out"/>
<feColorMatrix type="matrix" values="0 0 0 0 0 0 0 0 0 0 0 0 0 0 0 0 0 0 0.04 0"/>
<feBlend mode="normal" in2="BackgroundImageFix" result="effect1_dropShadow_12487_41782"/>
<feBlend mode="normal" in="SourceGraphic" in2="effect1_dropShadow_12487_41782" result="shape"/>
</filter>
</defs>
</svg>
