<svg width="23" height="18" viewBox="0 0 23 18" fill="none" xmlns="http://www.w3.org/2000/svg">
<path d="M16.7641 9.50838C18.4293 9.50838 19.7792 8.15847 19.7792 6.49328C19.7792 4.82809 18.4293 3.47818 16.7641 3.47818C16.449 3.47818 16.1451 3.52653 15.8596 3.61621C14.6363 4.00041 13.749 5.14322 13.749 6.49328C13.749 7.84333 14.6363 8.98614 15.8596 9.37034C16.1451 9.46003 16.449 9.50838 16.7641 9.50838Z" stroke="#8B5CF6" stroke-width="1.5" stroke-miterlimit="10"/>
<path d="M13.3435 10.7624C14.3275 10.2311 15.42 9.9538 16.5288 9.9538C17.6376 9.9538 18.7302 10.2311 19.7141 10.7624C20.0401 10.9384 20.351 11.1406 20.6442 11.3666C21.8096 12.2647 22.1821 13.7925 22.1821 15.2638V15.2638C22.1821 16.0779 21.5222 16.7378 20.7082 16.7378H12.7598" stroke="#8B5CF6" stroke-width="1.5" stroke-linecap="round" stroke-linejoin="round"/>
<path d="M8.11946 8.79998C10.2009 8.79998 11.8883 7.1126 11.8883 5.03111C11.8883 2.94962 10.2009 1.26224 8.11946 1.26224C6.03797 1.26224 4.35059 2.94962 4.35059 5.03111C4.35059 7.1126 6.03797 8.79998 8.11946 8.79998Z" stroke="#8B5CF6" stroke-width="1.5" stroke-miterlimit="10"/>
<path d="M1.5 15.1619C1.5 13.4916 1.96226 11.7651 3.31791 10.7894C3.67782 10.5303 4.06017 10.299 4.46159 10.0983C5.64235 9.50803 6.95339 9.19986 8.28397 9.19986C9.61455 9.19986 10.9256 9.50803 12.1064 10.0983C12.5078 10.299 12.8901 10.5303 13.25 10.7894" stroke="#8B5CF6" stroke-width="1.5" stroke-linecap="round" stroke-linejoin="round"/>
</svg>
