<svg width="13" height="17" viewBox="0 0 13 17" fill="none" xmlns="http://www.w3.org/2000/svg">
<path d="M11.5653 7.12695H10.9122V4.85677C10.9122 2.45443 8.93277 0.5 6.5 0.5C4.06723 0.5 2.08745 2.45443 2.08745 4.85677V7.12695H1.43467C0.918375 7.12695 0.5 7.54004 0.5 8.04981V15.5772C0.5 16.0869 0.918375 16.5 1.43467 16.5H11.5653C12.0816 16.5 12.5 16.0869 12.5 15.5772V8.04981C12.5 7.54004 12.0816 7.12695 11.5653 7.12695ZM9.33796 7.12695H3.66204V4.85677C3.66204 3.31152 4.93497 2.05469 6.5 2.05469C8.06503 2.05469 9.33796 3.31152 9.33796 4.85677V7.12695Z" fill="#D4D4D8"/>
</svg>
