<svg width="184" height="184" viewBox="0 0 184 184" fill="none" xmlns="http://www.w3.org/2000/svg">
<g filter="url(#filter0_d_12487_41781)">
<rect x="67" y="67" width="48" height="48" rx="10" fill="white" shape-rendering="crispEdges"/>
<path d="M91 95.5C92.1931 95.4988 93.337 95.0243 94.1806 94.1806C95.0243 93.337 95.4988 92.1931 95.5 91V85C95.5 83.8065 95.0259 82.6619 94.182 81.818C93.3381 80.9741 92.1935 80.5 91 80.5C89.8065 80.5 88.6619 80.9741 87.818 81.818C86.9741 82.6619 86.5 83.8065 86.5 85V91C86.5012 92.1931 86.9757 93.337 87.8194 94.1806C88.663 95.0243 89.8069 95.4988 91 95.5ZM88 85C88 84.2044 88.3161 83.4413 88.8787 82.8787C89.4413 82.3161 90.2044 82 91 82C91.7956 82 92.5587 82.3161 93.1213 82.8787C93.6839 83.4413 94 84.2044 94 85V91C94 91.7956 93.6839 92.5587 93.1213 93.1213C92.5587 93.6839 91.7956 94 91 94C90.2044 94 89.4413 93.6839 88.8787 93.1213C88.3161 92.5587 88 91.7956 88 91V85ZM91.75 98.4625V100.75C91.75 100.949 91.671 101.14 91.5303 101.28C91.3897 101.421 91.1989 101.5 91 101.5C90.8011 101.5 90.6103 101.421 90.4697 101.28C90.329 101.14 90.25 100.949 90.25 100.75V98.4625C88.4009 98.2743 86.6873 97.4072 85.4405 96.0288C84.1937 94.6504 83.5023 92.8586 83.5 91C83.5 90.8011 83.579 90.6103 83.7197 90.4697C83.8603 90.329 84.0511 90.25 84.25 90.25C84.4489 90.25 84.6397 90.329 84.7803 90.4697C84.921 90.6103 85 90.8011 85 91C85 92.5913 85.6321 94.1174 86.7574 95.2426C87.8826 96.3679 89.4087 97 91 97C92.5913 97 94.1174 96.3679 95.2426 95.2426C96.3679 94.1174 97 92.5913 97 91C97 90.8011 97.079 90.6103 97.2197 90.4697C97.3603 90.329 97.5511 90.25 97.75 90.25C97.9489 90.25 98.1397 90.329 98.2803 90.4697C98.421 90.6103 98.5 90.8011 98.5 91C98.4977 92.8586 97.8063 94.6504 96.5595 96.0288C95.3127 97.4072 93.5991 98.2743 91.75 98.4625Z" fill="#404650"/>
<rect x="67.5" y="67.5" width="47" height="47" rx="9.5" stroke="#D4D4D8" shape-rendering="crispEdges"/>
</g>
<defs>
<filter id="filter0_d_12487_41781" x="0" y="0" width="184" height="184" filterUnits="userSpaceOnUse" color-interpolation-filters="sRGB">
<feFlood flood-opacity="0" result="BackgroundImageFix"/>
<feColorMatrix in="SourceAlpha" type="matrix" values="0 0 0 0 0 0 0 0 0 0 0 0 0 0 0 0 0 0 127 0" result="hardAlpha"/>
<feOffset dx="1" dy="1"/>
<feGaussianBlur stdDeviation="34"/>
<feComposite in2="hardAlpha" operator="out"/>
<feColorMatrix type="matrix" values="0 0 0 0 0 0 0 0 0 0 0 0 0 0 0 0 0 0 0.04 0"/>
<feBlend mode="normal" in2="BackgroundImageFix" result="effect1_dropShadow_12487_41781"/>
<feBlend mode="normal" in="SourceGraphic" in2="effect1_dropShadow_12487_41781" result="shape"/>
</filter>
</defs>
</svg>
